<svg xmlns="http://www.w3.org/2000/svg" viewBox="0 0 172.14 52.26"><title>capa2Ativo 110</title><g id="b696788e-0c29-44c7-bc9c-b2863136170b" data-name="Camada 2"><g id="aa29be3a-ae44-4f61-9c79-d5994b35b131" data-name="Camada 1"><path d="M28.56,36.09a20.67,20.67,0,0,0,5.5,4.49,11.08,11.08,0,0,0,5.58,1.62,6.41,6.41,0,0,0,4.26-1.4,4.38,4.38,0,0,0,1.66-3.52,4.6,4.6,0,0,0-1.44-3.64Q42.68,32.36,37.61,31q-7-1.87-9.84-4.88t-2.88-8.25A14.55,14.55,0,0,1,29.44,6.79Q34,2.5,41.23,2.5a25.74,25.74,0,0,1,7.42,1.06A24.05,24.05,0,0,1,55.3,6.74l-4,9.29a16.78,16.78,0,0,0-4.52-2.83,11.83,11.83,0,0,0-4.57-1,6,6,0,0,0-3.79,1.12,3.45,3.45,0,0,0-1.45,2.86,3.52,3.52,0,0,0,1.27,2.85,13.85,13.85,0,0,0,4.94,2l.58.17Q51.61,23.4,54.1,26a11.51,11.51,0,0,1,2.56,4.19,16,16,0,0,1,.87,5.41q0,7.55-5,12.12T39.39,52.26a23.33,23.33,0,0,1-9-1.69,25.62,25.62,0,0,1-7.82-5.27Z" style="fill:#fff"/><path d="M62.37,51V26.47H57.49V18.32h4.88V8.59H73.72v9.73h4.89v8.15H73.72V51Z" style="fill:#fff"/><path d="M115.25,34.76a16.56,16.56,0,0,1-1.38,6.69,17.59,17.59,0,0,1-4,5.69A18.14,18.14,0,0,1,103.94,51a18.89,18.89,0,0,1-7,1.3,19.1,19.1,0,0,1-7-1.3,17.45,17.45,0,0,1-5.87-3.82,16.74,16.74,0,0,1-3.94-5.64,16.91,16.91,0,0,1-1.36-6.74A17.47,17.47,0,0,1,89.9,18.55a20.41,20.41,0,0,1,14.12,0,17.46,17.46,0,0,1,5.86,3.75,17.67,17.67,0,0,1,4,5.73A17,17,0,0,1,115.25,34.76Zm-11.46,0A8.42,8.42,0,0,0,102,29a7,7,0,0,0-10,0,8.47,8.47,0,0,0-1.83,5.76A8.51,8.51,0,0,0,92,40.5a7.07,7.07,0,0,0,10,0A8.46,8.46,0,0,0,103.79,34.76Z" style="fill:#fff"/><circle cx="6.63" cy="6.9" r="6.63" style="fill:#fff"/><path d="M24.33,33.18C22.69,31.26,13.1,16.85,13.1,16.85H.79L12.08,33.18.79,49.52H13.1Z" style="fill:#fff"/><path d="M172.14,16.34C170.49,14.41,160.9,0,160.9,0H148.59l11.3,16.34-11.3,16.33H160.9Z" style="fill:#29abe2"/><path d="M152.08,18.32H139.77l-9.94,14.45V0H118.15V51h11.68V36.39C133,40.76,139.77,51,139.77,51h12.31L140.79,34.66Z" style="fill:#fff"/></g></g></svg>